<mxfile host="65bd71144e">
    <diagram id="dw0yqpkaGDJNE2fJN3Ij" name="Lab4">
        <mxGraphModel dx="641" dy="470" grid="1" gridSize="10" guides="1" tooltips="1" connect="1" arrows="1" fold="1" page="1" pageScale="1" pageWidth="850" pageHeight="1100" math="0" shadow="0">
            <root>
                <mxCell id="0"/>
                <mxCell id="1" parent="0"/>
                <mxCell id="14" value="" style="edgeStyle=none;html=1;entryX=-0.021;entryY=0.388;entryDx=0;entryDy=0;entryPerimeter=0;" edge="1" parent="1" source="10" target="24">
                    <mxGeometry relative="1" as="geometry">
                        <Array as="points">
                            <mxPoint x="180" y="170"/>
                        </Array>
                    </mxGeometry>
                </mxCell>
                <mxCell id="34" style="edgeStyle=none;html=1;entryX=0.45;entryY=-0.025;entryDx=0;entryDy=0;entryPerimeter=0;" edge="1" parent="1" source="10" target="29">
                    <mxGeometry relative="1" as="geometry"/>
                </mxCell>
                <mxCell id="35" style="edgeStyle=none;html=1;entryX=0.5;entryY=0;entryDx=0;entryDy=0;" edge="1" parent="1" source="10" target="26">
                    <mxGeometry relative="1" as="geometry"/>
                </mxCell>
                <mxCell id="10" value="Account" style="swimlane;fontStyle=0;align=center;verticalAlign=top;childLayout=stackLayout;horizontal=1;startSize=40;horizontalStack=0;resizeParent=1;resizeParentMax=0;resizeLast=0;collapsible=0;marginBottom=0;html=1;" vertex="1" parent="1">
                    <mxGeometry x="20" y="130" width="140" height="120" as="geometry"/>
                </mxCell>
                <mxCell id="11" value="+Username: String&lt;br&gt;+Password: int&lt;br&gt;+Email: String&lt;br&gt;+LoggedIn : boolean" style="text;html=1;strokeColor=none;fillColor=none;align=left;verticalAlign=middle;spacingLeft=4;spacingRight=4;overflow=hidden;rotatable=0;points=[[0,0.5],[1,0.5]];portConstraint=eastwest;" vertex="1" parent="10">
                    <mxGeometry y="40" width="140" height="80" as="geometry"/>
                </mxCell>
                <mxCell id="33" style="edgeStyle=none;html=1;entryX=0.5;entryY=0;entryDx=0;entryDy=0;" edge="1" parent="1" source="12" target="15">
                    <mxGeometry relative="1" as="geometry"/>
                </mxCell>
                <mxCell id="12" value="CreateAccountController" style="swimlane;fontStyle=0;align=center;verticalAlign=top;childLayout=stackLayout;horizontal=1;startSize=40;horizontalStack=0;resizeParent=1;resizeParentMax=0;resizeLast=0;collapsible=0;marginBottom=0;html=1;" vertex="1" parent="1">
                    <mxGeometry x="470" y="30" width="140" height="120" as="geometry"/>
                </mxCell>
                <mxCell id="13" value="+createAccount&lt;br&gt;+accountValid" style="text;html=1;strokeColor=none;fillColor=none;align=left;verticalAlign=middle;spacingLeft=4;spacingRight=4;overflow=hidden;rotatable=0;points=[[0,0.5],[1,0.5]];portConstraint=eastwest;" vertex="1" parent="12">
                    <mxGeometry y="40" width="140" height="80" as="geometry"/>
                </mxCell>
                <mxCell id="15" value="LoggedInUI" style="swimlane;fontStyle=0;align=center;verticalAlign=top;childLayout=stackLayout;horizontal=1;startSize=40;horizontalStack=0;resizeParent=1;resizeParentMax=0;resizeLast=0;collapsible=0;marginBottom=0;html=1;" vertex="1" parent="1">
                    <mxGeometry x="500" y="210" width="140" height="120" as="geometry"/>
                </mxCell>
                <mxCell id="16" value="+handleInputs&lt;br&gt;+loginInputs&lt;br&gt;+handleCommands" style="text;html=1;strokeColor=none;fillColor=none;align=left;verticalAlign=middle;spacingLeft=4;spacingRight=4;overflow=hidden;rotatable=0;points=[[0,0.5],[1,0.5]];portConstraint=eastwest;" vertex="1" parent="15">
                    <mxGeometry y="40" width="140" height="80" as="geometry"/>
                </mxCell>
                <mxCell id="23" value="NewAccountUI" style="swimlane;fontStyle=0;align=center;verticalAlign=top;childLayout=stackLayout;horizontal=1;startSize=40;horizontalStack=0;resizeParent=1;resizeParentMax=0;resizeLast=0;collapsible=0;marginBottom=0;html=1;" vertex="1" parent="1">
                    <mxGeometry x="240" y="70" width="140" height="120" as="geometry"/>
                </mxCell>
                <mxCell id="24" value="+creatAccountInputs&lt;br&gt;+handleInputs&lt;br&gt;+handleCommands" style="text;html=1;strokeColor=none;fillColor=none;align=left;verticalAlign=middle;spacingLeft=4;spacingRight=4;overflow=hidden;rotatable=0;points=[[0,0.5],[1,0.5]];portConstraint=eastwest;" vertex="1" parent="23">
                    <mxGeometry y="40" width="140" height="80" as="geometry"/>
                </mxCell>
                <mxCell id="26" value="StoredFiles" style="swimlane;fontStyle=0;align=center;verticalAlign=top;childLayout=stackLayout;horizontal=1;startSize=40;horizontalStack=0;resizeParent=1;resizeParentMax=0;resizeLast=0;collapsible=0;marginBottom=0;html=1;" vertex="1" parent="1">
                    <mxGeometry x="270" y="340" width="140" height="120" as="geometry"/>
                </mxCell>
                <mxCell id="27" value="+search&lt;br&gt;+read&lt;br&gt;+update&lt;br&gt;+write" style="text;html=1;strokeColor=none;fillColor=none;align=left;verticalAlign=middle;spacingLeft=4;spacingRight=4;overflow=hidden;rotatable=0;points=[[0,0.5],[1,0.5]];portConstraint=eastwest;" vertex="1" parent="26">
                    <mxGeometry y="40" width="140" height="80" as="geometry"/>
                </mxCell>
                <mxCell id="29" value="UITerminal" style="swimlane;fontStyle=0;align=center;verticalAlign=top;childLayout=stackLayout;horizontal=1;startSize=40;horizontalStack=0;resizeParent=1;resizeParentMax=0;resizeLast=0;collapsible=0;marginBottom=0;html=1;" vertex="1" parent="1">
                    <mxGeometry x="40" y="380" width="140" height="120" as="geometry"/>
                </mxCell>
                <mxCell id="30" value="+accObject: account&lt;br&gt;+prompt: String&lt;br&gt;+command: Actions" style="text;html=1;strokeColor=none;fillColor=none;align=left;verticalAlign=middle;spacingLeft=4;spacingRight=4;overflow=hidden;rotatable=0;points=[[0,0.5],[1,0.5]];portConstraint=eastwest;" vertex="1" parent="29">
                    <mxGeometry y="40" width="140" height="80" as="geometry"/>
                </mxCell>
                <mxCell id="32" style="edgeStyle=none;html=1;entryX=0;entryY=0.5;entryDx=0;entryDy=0;exitX=1;exitY=0.5;exitDx=0;exitDy=0;" edge="1" parent="1" source="24" target="13">
                    <mxGeometry relative="1" as="geometry"/>
                </mxCell>
            </root>
        </mxGraphModel>
    </diagram>
    <diagram id="NfbafCXiUfFBZxxNrtJs" name="Biểu đồ tuần tự đăng kí">
        <mxGraphModel dx="641" dy="1570" grid="1" gridSize="10" guides="1" tooltips="1" connect="1" arrows="1" fold="1" page="1" pageScale="1" pageWidth="850" pageHeight="1100" math="0" shadow="0">
            <root>
                <mxCell id="dLo3KlXClYpw2qjBxDRo-0"/>
                <mxCell id="dLo3KlXClYpw2qjBxDRo-1" parent="dLo3KlXClYpw2qjBxDRo-0"/>
                <mxCell id="dLo3KlXClYpw2qjBxDRo-22" value="" style="shape=umlLifeline;participant=umlActor;perimeter=lifelinePerimeter;whiteSpace=wrap;html=1;container=1;collapsible=0;recursiveResize=0;verticalAlign=top;spacingTop=36;outlineConnect=0;labelBackgroundColor=none;fontColor=default;strokeColor=#CC0000;fillColor=default;gradientColor=none;" vertex="1" parent="dLo3KlXClYpw2qjBxDRo-1">
                    <mxGeometry x="40" y="20" width="20" height="330" as="geometry"/>
                </mxCell>
                <mxCell id="dLo3KlXClYpw2qjBxDRo-25" value="" style="shape=umlLifeline;participant=umlEntity;perimeter=lifelinePerimeter;whiteSpace=wrap;html=1;container=1;collapsible=0;recursiveResize=0;verticalAlign=top;spacingTop=36;outlineConnect=0;labelBackgroundColor=none;fontColor=default;strokeColor=#CC0000;fillColor=default;gradientColor=none;" vertex="1" parent="dLo3KlXClYpw2qjBxDRo-1">
                    <mxGeometry x="520" y="20" width="40" height="340" as="geometry"/>
                </mxCell>
                <mxCell id="dLo3KlXClYpw2qjBxDRo-42" value="" style="html=1;points=[];perimeter=orthogonalPerimeter;labelBackgroundColor=none;fontColor=default;strokeColor=#CC0000;fillColor=default;gradientColor=none;" vertex="1" parent="dLo3KlXClYpw2qjBxDRo-25">
                    <mxGeometry x="15" y="160" width="10" height="100" as="geometry"/>
                </mxCell>
                <mxCell id="dLo3KlXClYpw2qjBxDRo-28" value="" style="shape=umlLifeline;participant=umlControl;perimeter=lifelinePerimeter;whiteSpace=wrap;html=1;container=1;collapsible=0;recursiveResize=0;verticalAlign=top;spacingTop=36;outlineConnect=0;labelBackgroundColor=none;fontColor=default;strokeColor=#CC0000;fillColor=default;gradientColor=none;" vertex="1" parent="dLo3KlXClYpw2qjBxDRo-1">
                    <mxGeometry x="360" y="20" width="40" height="340" as="geometry"/>
                </mxCell>
                <mxCell id="dLo3KlXClYpw2qjBxDRo-35" value="" style="html=1;points=[];perimeter=orthogonalPerimeter;labelBackgroundColor=none;fontColor=default;strokeColor=#CC0000;fillColor=default;gradientColor=none;" vertex="1" parent="dLo3KlXClYpw2qjBxDRo-28">
                    <mxGeometry x="15" y="120" width="10" height="180" as="geometry"/>
                </mxCell>
                <mxCell id="dLo3KlXClYpw2qjBxDRo-29" value="" style="shape=umlLifeline;participant=umlBoundary;perimeter=lifelinePerimeter;whiteSpace=wrap;html=1;container=1;collapsible=0;recursiveResize=0;verticalAlign=top;spacingTop=36;outlineConnect=0;labelBackgroundColor=none;fontColor=default;strokeColor=#CC0000;fillColor=default;gradientColor=none;" vertex="1" parent="dLo3KlXClYpw2qjBxDRo-1">
                    <mxGeometry x="190" y="15" width="50" height="350" as="geometry"/>
                </mxCell>
                <mxCell id="dLo3KlXClYpw2qjBxDRo-31" value="" style="html=1;points=[];perimeter=orthogonalPerimeter;labelBackgroundColor=none;fontColor=#FFFFFF;strokeColor=#CC0000;fillColor=default;gradientColor=none;" vertex="1" parent="dLo3KlXClYpw2qjBxDRo-29">
                    <mxGeometry x="20" y="100" width="10" height="210" as="geometry"/>
                </mxCell>
                <mxCell id="dLo3KlXClYpw2qjBxDRo-37" value="1: Nhap thong tin dang ki&amp;nbsp;&amp;nbsp;" style="html=1;verticalAlign=bottom;endArrow=block;fontColor=default;" edge="1" parent="dLo3KlXClYpw2qjBxDRo-1" source="dLo3KlXClYpw2qjBxDRo-22" target="dLo3KlXClYpw2qjBxDRo-29">
                    <mxGeometry x="-0.0274" width="80" relative="1" as="geometry">
                        <mxPoint x="50" y="150" as="sourcePoint"/>
                        <mxPoint x="130" y="150" as="targetPoint"/>
                        <Array as="points">
                            <mxPoint x="100" y="110"/>
                            <mxPoint x="160" y="110"/>
                        </Array>
                        <mxPoint as="offset"/>
                    </mxGeometry>
                </mxCell>
                <mxCell id="dLo3KlXClYpw2qjBxDRo-40" value="2: Kiem tra thong tin dang ki&amp;nbsp;&amp;nbsp;" style="html=1;verticalAlign=bottom;endArrow=block;fontColor=default;" edge="1" parent="dLo3KlXClYpw2qjBxDRo-1">
                    <mxGeometry x="-0.0274" width="80" relative="1" as="geometry">
                        <mxPoint x="220" y="140" as="sourcePoint"/>
                        <mxPoint x="384.5" y="140" as="targetPoint"/>
                        <Array as="points">
                            <mxPoint x="320" y="140"/>
                        </Array>
                        <mxPoint as="offset"/>
                    </mxGeometry>
                </mxCell>
                <mxCell id="dLo3KlXClYpw2qjBxDRo-41" value="3: Kiem tra thong tin dang ki&amp;nbsp;&amp;nbsp;" style="html=1;verticalAlign=bottom;endArrow=block;fontColor=default;" edge="1" parent="dLo3KlXClYpw2qjBxDRo-1">
                    <mxGeometry x="-0.0274" width="80" relative="1" as="geometry">
                        <mxPoint x="380" y="180" as="sourcePoint"/>
                        <mxPoint x="544.5" y="180" as="targetPoint"/>
                        <Array as="points">
                            <mxPoint x="480" y="180"/>
                        </Array>
                        <mxPoint as="offset"/>
                    </mxGeometry>
                </mxCell>
                <mxCell id="dLo3KlXClYpw2qjBxDRo-43" value="4: Thong bao" style="html=1;verticalAlign=bottom;endArrow=open;dashed=1;endSize=8;fontColor=default;" edge="1" parent="dLo3KlXClYpw2qjBxDRo-1" source="dLo3KlXClYpw2qjBxDRo-25">
                    <mxGeometry relative="1" as="geometry">
                        <mxPoint x="465" y="280" as="sourcePoint"/>
                        <mxPoint x="385" y="280" as="targetPoint"/>
                    </mxGeometry>
                </mxCell>
                <mxCell id="dLo3KlXClYpw2qjBxDRo-44" value="5: Thong bao" style="html=1;verticalAlign=bottom;endArrow=open;dashed=1;endSize=8;fontColor=default;" edge="1" parent="dLo3KlXClYpw2qjBxDRo-1">
                    <mxGeometry relative="1" as="geometry">
                        <mxPoint x="374.5" y="310" as="sourcePoint"/>
                        <mxPoint x="220" y="310" as="targetPoint"/>
                    </mxGeometry>
                </mxCell>
                <mxCell id="dLo3KlXClYpw2qjBxDRo-45" value="Lifeline 1: Khach hang" style="text;html=1;align=center;verticalAlign=middle;resizable=0;points=[];autosize=1;strokeColor=none;fillColor=none;fontColor=#FFFFFF;" vertex="1" parent="dLo3KlXClYpw2qjBxDRo-1">
                    <mxGeometry width="130" height="20" as="geometry"/>
                </mxCell>
                <mxCell id="dLo3KlXClYpw2qjBxDRo-46" value="Lifeline 2: FmDangKy" style="text;html=1;align=center;verticalAlign=middle;resizable=0;points=[];autosize=1;strokeColor=none;fillColor=none;fontColor=#FFFFFF;" vertex="1" parent="dLo3KlXClYpw2qjBxDRo-1">
                    <mxGeometry x="155" y="-5" width="130" height="20" as="geometry"/>
                </mxCell>
                <mxCell id="dLo3KlXClYpw2qjBxDRo-47" value="Lifeline 3: DangKy" style="text;html=1;align=center;verticalAlign=middle;resizable=0;points=[];autosize=1;strokeColor=none;fillColor=none;fontColor=#FFFFFF;" vertex="1" parent="dLo3KlXClYpw2qjBxDRo-1">
                    <mxGeometry x="325" width="110" height="20" as="geometry"/>
                </mxCell>
                <mxCell id="dLo3KlXClYpw2qjBxDRo-48" value="Lifeline 4: TaiKhoan" style="text;html=1;align=center;verticalAlign=middle;resizable=0;points=[];autosize=1;strokeColor=none;fillColor=none;fontColor=#FFFFFF;" vertex="1" parent="dLo3KlXClYpw2qjBxDRo-1">
                    <mxGeometry x="480" width="120" height="20" as="geometry"/>
                </mxCell>
                <mxCell id="dLo3KlXClYpw2qjBxDRo-61" value="" style="html=1;points=[];perimeter=orthogonalPerimeter;labelBackgroundColor=none;fontColor=#FFFFFF;strokeColor=#CC0000;fillColor=default;gradientColor=none;" vertex="1" parent="dLo3KlXClYpw2qjBxDRo-1">
                    <mxGeometry x="375" y="170" width="10" height="40" as="geometry"/>
                </mxCell>
            </root>
        </mxGraphModel>
    </diagram>
    <diagram id="XzgbSICy_kjkT93eG3VM" name="Biểu đồ tuần tự đăng nhập">
        <mxGraphModel dx="534" dy="1492" grid="1" gridSize="10" guides="1" tooltips="1" connect="1" arrows="1" fold="1" page="1" pageScale="1" pageWidth="850" pageHeight="1100" math="0" shadow="0">
            <root>
                <mxCell id="Me0n2BEjh-y8XW1ZsECC-0"/>
                <mxCell id="Me0n2BEjh-y8XW1ZsECC-1" parent="Me0n2BEjh-y8XW1ZsECC-0"/>
                <mxCell id="mUbpzDAr2WmrBECd1ZEh-0" value="" style="shape=umlLifeline;participant=umlActor;perimeter=lifelinePerimeter;whiteSpace=wrap;html=1;container=1;collapsible=0;recursiveResize=0;verticalAlign=top;spacingTop=36;outlineConnect=0;labelBackgroundColor=none;fontColor=default;strokeColor=#CC0000;fillColor=default;gradientColor=none;" vertex="1" parent="Me0n2BEjh-y8XW1ZsECC-1">
                    <mxGeometry x="40" y="20" width="20" height="330" as="geometry"/>
                </mxCell>
                <mxCell id="mUbpzDAr2WmrBECd1ZEh-1" value="" style="shape=umlLifeline;participant=umlEntity;perimeter=lifelinePerimeter;whiteSpace=wrap;html=1;container=1;collapsible=0;recursiveResize=0;verticalAlign=top;spacingTop=36;outlineConnect=0;labelBackgroundColor=none;fontColor=default;strokeColor=#CC0000;fillColor=default;gradientColor=none;" vertex="1" parent="Me0n2BEjh-y8XW1ZsECC-1">
                    <mxGeometry x="520" y="20" width="40" height="360" as="geometry"/>
                </mxCell>
                <mxCell id="mUbpzDAr2WmrBECd1ZEh-2" value="" style="html=1;points=[];perimeter=orthogonalPerimeter;labelBackgroundColor=none;fontColor=default;strokeColor=#CC0000;fillColor=default;gradientColor=none;" vertex="1" parent="mUbpzDAr2WmrBECd1ZEh-1">
                    <mxGeometry x="15" y="160" width="10" height="100" as="geometry"/>
                </mxCell>
                <mxCell id="mUbpzDAr2WmrBECd1ZEh-3" value="" style="shape=umlLifeline;participant=umlControl;perimeter=lifelinePerimeter;whiteSpace=wrap;html=1;container=1;collapsible=0;recursiveResize=0;verticalAlign=top;spacingTop=36;outlineConnect=0;labelBackgroundColor=none;fontColor=default;strokeColor=#CC0000;fillColor=default;gradientColor=none;" vertex="1" parent="Me0n2BEjh-y8XW1ZsECC-1">
                    <mxGeometry x="360" y="20" width="40" height="360" as="geometry"/>
                </mxCell>
                <mxCell id="mUbpzDAr2WmrBECd1ZEh-4" value="" style="html=1;points=[];perimeter=orthogonalPerimeter;labelBackgroundColor=none;fontColor=default;strokeColor=#CC0000;fillColor=default;gradientColor=none;" vertex="1" parent="mUbpzDAr2WmrBECd1ZEh-3">
                    <mxGeometry x="15" y="120" width="10" height="180" as="geometry"/>
                </mxCell>
                <mxCell id="mUbpzDAr2WmrBECd1ZEh-5" value="" style="html=1;points=[];perimeter=orthogonalPerimeter;labelBackgroundColor=none;fontColor=#FFFFFF;strokeColor=#CC0000;fillColor=default;gradientColor=none;" vertex="1" parent="Me0n2BEjh-y8XW1ZsECC-1">
                    <mxGeometry x="210" y="115" width="10" height="210" as="geometry"/>
                </mxCell>
                <mxCell id="mUbpzDAr2WmrBECd1ZEh-6" value="1: ten dang nhap, mat khau" style="html=1;verticalAlign=bottom;endArrow=block;fontColor=default;" edge="1" parent="Me0n2BEjh-y8XW1ZsECC-1" source="mUbpzDAr2WmrBECd1ZEh-0">
                    <mxGeometry x="-0.0274" width="80" relative="1" as="geometry">
                        <mxPoint x="50" y="150" as="sourcePoint"/>
                        <mxPoint x="214.5" y="110" as="targetPoint"/>
                        <Array as="points">
                            <mxPoint x="100" y="110"/>
                            <mxPoint x="160" y="110"/>
                        </Array>
                        <mxPoint as="offset"/>
                    </mxGeometry>
                </mxCell>
                <mxCell id="mUbpzDAr2WmrBECd1ZEh-7" value="2: Kiem tra&amp;nbsp; &amp;nbsp;" style="html=1;verticalAlign=bottom;endArrow=block;fontColor=default;" edge="1" parent="Me0n2BEjh-y8XW1ZsECC-1">
                    <mxGeometry x="-0.0274" width="80" relative="1" as="geometry">
                        <mxPoint x="220" y="140" as="sourcePoint"/>
                        <mxPoint x="384.5" y="140" as="targetPoint"/>
                        <Array as="points">
                            <mxPoint x="320" y="140"/>
                        </Array>
                        <mxPoint as="offset"/>
                    </mxGeometry>
                </mxCell>
                <mxCell id="mUbpzDAr2WmrBECd1ZEh-8" value="3: Kiem tra&amp;nbsp;" style="html=1;verticalAlign=bottom;endArrow=block;fontColor=default;" edge="1" parent="Me0n2BEjh-y8XW1ZsECC-1">
                    <mxGeometry x="-0.0274" width="80" relative="1" as="geometry">
                        <mxPoint x="380" y="180" as="sourcePoint"/>
                        <mxPoint x="544.5" y="180" as="targetPoint"/>
                        <Array as="points">
                            <mxPoint x="480" y="180"/>
                        </Array>
                        <mxPoint as="offset"/>
                    </mxGeometry>
                </mxCell>
                <mxCell id="mUbpzDAr2WmrBECd1ZEh-9" value="4: ket qua" style="html=1;verticalAlign=bottom;endArrow=open;dashed=1;endSize=8;fontColor=default;" edge="1" parent="Me0n2BEjh-y8XW1ZsECC-1" source="mUbpzDAr2WmrBECd1ZEh-1">
                    <mxGeometry relative="1" as="geometry">
                        <mxPoint x="465" y="280" as="sourcePoint"/>
                        <mxPoint x="385" y="280" as="targetPoint"/>
                    </mxGeometry>
                </mxCell>
                <mxCell id="mUbpzDAr2WmrBECd1ZEh-10" value="5: ket qua" style="html=1;verticalAlign=bottom;endArrow=open;dashed=1;endSize=8;fontColor=default;" edge="1" parent="Me0n2BEjh-y8XW1ZsECC-1">
                    <mxGeometry relative="1" as="geometry">
                        <mxPoint x="374.5" y="310" as="sourcePoint"/>
                        <mxPoint x="220" y="310" as="targetPoint"/>
                    </mxGeometry>
                </mxCell>
                <mxCell id="mUbpzDAr2WmrBECd1ZEh-11" value="Lifeline 2: FmDangNhap" style="text;html=1;align=center;verticalAlign=middle;resizable=0;points=[];autosize=1;strokeColor=none;fillColor=none;fontColor=#FFFFFF;" vertex="1" parent="Me0n2BEjh-y8XW1ZsECC-1">
                    <mxGeometry x="150" y="-5" width="140" height="20" as="geometry"/>
                </mxCell>
                <mxCell id="mUbpzDAr2WmrBECd1ZEh-12" value="Lifeline 3: DangNhap" style="text;html=1;align=center;verticalAlign=middle;resizable=0;points=[];autosize=1;strokeColor=none;fillColor=none;fontColor=#FFFFFF;" vertex="1" parent="Me0n2BEjh-y8XW1ZsECC-1">
                    <mxGeometry x="315" width="130" height="20" as="geometry"/>
                </mxCell>
                <mxCell id="mUbpzDAr2WmrBECd1ZEh-13" value="" style="html=1;points=[];perimeter=orthogonalPerimeter;labelBackgroundColor=none;fontColor=#FFFFFF;strokeColor=#CC0000;fillColor=default;gradientColor=none;" vertex="1" parent="Me0n2BEjh-y8XW1ZsECC-1">
                    <mxGeometry x="375" y="170" width="10" height="40" as="geometry"/>
                </mxCell>
                <mxCell id="Mefx_3uV1FNbQceXIYlm-0" value="" style="shape=umlLifeline;participant=umlBoundary;perimeter=lifelinePerimeter;whiteSpace=wrap;html=1;container=1;collapsible=0;recursiveResize=0;verticalAlign=top;spacingTop=36;outlineConnect=0;labelBackgroundColor=none;fontColor=default;strokeColor=#CC0000;fillColor=default;gradientColor=none;" vertex="1" parent="Me0n2BEjh-y8XW1ZsECC-1">
                    <mxGeometry x="190" y="20" width="50" height="360" as="geometry"/>
                </mxCell>
                <mxCell id="Mefx_3uV1FNbQceXIYlm-1" value="" style="html=1;points=[];perimeter=orthogonalPerimeter;labelBackgroundColor=none;fontColor=#FFFFFF;strokeColor=#CC0000;fillColor=default;gradientColor=none;" vertex="1" parent="Mefx_3uV1FNbQceXIYlm-0">
                    <mxGeometry x="20" y="100" width="10" height="210" as="geometry"/>
                </mxCell>
                <mxCell id="JdULCaWkDn-iwsdRokCC-0" value="Lifeline 1: Khach hang" style="text;html=1;align=center;verticalAlign=middle;resizable=0;points=[];autosize=1;strokeColor=none;fillColor=none;fontColor=#FFFFFF;" vertex="1" parent="Me0n2BEjh-y8XW1ZsECC-1">
                    <mxGeometry width="130" height="20" as="geometry"/>
                </mxCell>
                <mxCell id="6FRM_DiUC6Ac_YCZYyJG-0" value="Lifeline 4: TaiKhoan" style="text;html=1;align=center;verticalAlign=middle;resizable=0;points=[];autosize=1;strokeColor=none;fillColor=none;fontColor=#FFFFFF;" vertex="1" parent="Me0n2BEjh-y8XW1ZsECC-1">
                    <mxGeometry x="480" width="120" height="20" as="geometry"/>
                </mxCell>
                <mxCell id="6FRM_DiUC6Ac_YCZYyJG-2" value="6: thong bao" style="edgeStyle=orthogonalEdgeStyle;html=1;align=left;spacingLeft=2;endArrow=block;rounded=0;entryX=1;entryY=0;dashed=1;fontColor=#FFFFFF;" edge="1" parent="Me0n2BEjh-y8XW1ZsECC-1">
                    <mxGeometry relative="1" as="geometry">
                        <mxPoint x="215" y="340" as="sourcePoint"/>
                        <Array as="points">
                            <mxPoint x="245" y="340"/>
                        </Array>
                        <mxPoint x="220" y="360.0000000000002" as="targetPoint"/>
                    </mxGeometry>
                </mxCell>
            </root>
        </mxGraphModel>
    </diagram>
</mxfile>